# xmcd
#
# Track frame offsets: 
#        150
#        35942
#        68390
#        91552
#        120165
#        147937
#        179365
#        203005
#        224942
#        250450
#        284597
#
# Disc length: 4204 seconds
#
# Revision: 1
# Processed by: cddbd v1.5.2PL0 Copyright (c) Steve Scherf et al.
# Submitted via: ExactAudioCopyFreeDBPlugin 1.0
#
DISCID=a6106a0b
DTITLE=中島みゆき - 歌でしか言えない
DYEAR=1991
DGENRE=JPop
TTITLE0=01-C.Q.
TTITLE1=02-おだやかな時代
TTITLE2=03-トーキョー迷子
TTITLE3=04-Maybe
TTITLE4=05-渚へ
TTITLE5=06-永久欠番
TTITLE6=07-笑ってよエンジェル
TTITLE7=08-た・わ・わ
TTITLE8=09-サッポロSNOWY
TTITLE9=10-南三条
TTITLE10=11-炎と水
EXTD=YEAR: 1991\nアルバム名：歌でしか言えない
EXTT0=
EXTT1=
EXTT2=
EXTT3=
EXTT4=
EXTT5=
EXTT6=
EXTT7=
EXTT8=
EXTT9=
EXTT10=
PLAYORDER=
